<svg width="311" height="247" viewBox="0 0 311 247" fill="none" xmlns="http://www.w3.org/2000/svg">
<path d="M14.5919 246.088C9.173 246.088 3.56637 243.428 0 238.818L3.70511 235.35C5.55766 237.581 9.0261 240.911 14.5878 240.911C19.815 240.911 25.0911 238.916 25.0911 234.497C25.0911 229.079 19.7211 229.079 14.5878 229.079C6.12893 229.079 1.51795 225.941 1.51795 219.907C1.51795 213.873 6.98176 208.789 14.5878 208.789C19.9578 208.789 24.6137 210.311 28.8452 214.395L25.6134 218.197C21.8104 215.109 19.105 214.015 14.5878 214.015C10.5971 214.015 7.2674 216.774 7.2674 219.858C7.2674 221.996 8.78943 223.946 14.8245 223.946C27.2293 223.946 30.4121 227.794 30.4121 234.493C30.4121 241.621 23.5691 246.088 14.5878 246.088H14.5919Z" fill="#D1DAEB"/>
<path d="M38.0141 245.28V209.833H43.0984V245.28H38.0141Z" fill="#D1DAEB"/>
<path d="M67.4265 215.06V245.28H62.3911V215.06H49.7497V209.833H79.9251V215.06H67.4265Z" fill="#D1DAEB"/>
<path d="M113.614 218.291C111.047 215.631 107.293 214.015 103.253 214.015C95.3657 214.015 89.2817 219.67 89.2817 227.655C89.2817 235.639 95.888 240.911 103.302 240.911C106.865 240.911 110.145 239.625 112.618 237.488V231.025H108.056L105.824 225.892H117.751V239.67C114.189 243.661 108.958 246.084 103.257 246.084C92.5175 246.084 84.2014 237.72 84.2014 227.031C84.2014 216.341 93.1337 208.785 103.306 208.785C108.627 208.785 113.475 210.923 116.948 214.391L113.622 218.287L113.614 218.291Z" fill="#D1DAEB"/>
<path d="M131.715 240.103H153.578V245.28H126.537V209.833H151.485V215.06H131.715V225.798C133.853 224.562 136.089 224.419 138.415 224.419H146.16V229.695H138.415C136.134 229.695 133.853 229.931 131.715 231.074V240.103Z" fill="#D1DAEB"/>
<path d="M173.626 246.088C168.207 246.088 162.6 243.428 159.034 238.818L162.739 235.35C164.592 237.581 168.06 240.911 173.622 240.911C178.849 240.911 184.125 238.916 184.125 234.497C184.125 229.079 178.755 229.079 173.622 229.079C165.163 229.079 160.552 225.941 160.552 219.907C160.552 213.873 166.016 208.789 173.622 208.789C178.992 208.789 183.648 210.311 187.879 214.395L184.647 218.197C180.844 215.109 178.139 214.015 173.622 214.015C169.631 214.015 166.301 216.774 166.301 219.858C166.301 221.996 167.823 223.946 173.859 223.946C186.263 223.946 189.446 227.794 189.446 234.493C189.446 241.621 182.603 246.088 173.622 246.088H173.626Z" fill="#D1DAEB"/>
<path d="M196.999 239.483C198.566 239.483 199.851 240.764 199.851 242.335C199.851 243.905 198.57 245.138 196.999 245.138C195.428 245.138 194.196 243.901 194.196 242.335C194.196 240.768 195.432 239.483 196.999 239.483Z" fill="#D1DAEB"/>
<path d="M216.577 209.213H222.282L239.343 245.28H233.544L231.214 240.103H220.425C213.962 240.103 210.493 242.147 209.685 243.62L208.784 245.284H203.177L218.528 213.591L216.577 209.217V209.213ZM228.884 234.872L221.139 219.903L213.297 236.867C214.582 235.774 217.479 234.872 222.327 234.872H228.884Z" fill="#D1DAEB"/>
<path d="M245.99 245.28V209.833H264.193C270.465 209.833 274.553 213.636 274.553 219.956C274.553 226.276 270.465 230.221 264.193 230.221H257.921C255.64 230.221 253.31 230.507 251.172 231.645V245.284H245.994L245.99 245.28ZM264.193 224.991C267.568 224.991 269.42 223.375 269.42 219.952C269.42 216.529 267.617 215.011 264.193 215.011H251.172V226.415C253.31 225.178 255.591 224.991 257.921 224.991H264.193Z" fill="#D1DAEB"/>
<path d="M282.147 245.28V209.833H300.35C306.622 209.833 310.711 213.636 310.711 219.956C310.711 226.276 306.622 230.221 300.35 230.221H294.079C291.798 230.221 289.468 230.507 287.33 231.645V245.284H282.151L282.147 245.28ZM300.35 224.991C303.725 224.991 305.578 223.375 305.578 219.952C305.578 216.529 303.774 215.011 300.35 215.011H287.33V226.415C289.468 225.178 291.749 224.991 294.079 224.991H300.35Z" fill="#D1DAEB"/>
<path d="M84.0219 19.5145C66.0636 19.5145 51.2472 33.2029 49.4518 50.6897V50.7223C49.3335 51.881 49.2682 53.0724 49.2682 54.2678C49.2682 55.4632 49.3335 56.6546 49.4518 57.8133V57.846C51.2513 75.3328 66.0677 89.0211 84.0219 89.0211C103.188 89.0211 118.78 73.4356 118.78 54.2678C118.78 35.1001 103.192 19.5145 84.0219 19.5145ZM84.0219 71.9872C75.4529 71.9872 68.316 65.9243 66.6512 57.846C66.4145 56.6872 66.3003 55.4959 66.3003 54.2678C66.3003 53.0397 66.4186 51.8484 66.6512 50.6897C68.316 42.6113 75.4529 36.5321 84.0219 36.5321C93.8152 36.5321 101.76 44.4759 101.76 54.2678C101.76 64.0598 93.8152 71.9872 84.0219 71.9872Z" fill="#D1DAEB"/>
<path d="M261.447 45.9732L261.267 162.314L260.847 162.889C256.342 169.148 251.258 175.031 245.729 180.38L241.954 184.019L242.199 53.5579L218.442 28.1641L194.641 53.4722L194.396 184.933L149.106 159.115L99.3973 186.553L99.5524 129.503L68.6262 129.458L68.5364 181.535L64.7415 177.626C59.192 171.922 54.1077 165.66 49.6681 158.981L49.2927 158.426L49.358 110.143L118.825 110.298L118.759 153.872L149.286 137.002L175.217 151.808L175.397 45.81L218.532 0L261.447 45.9732Z" fill="#D1DAEB"/>
</svg>
